# xmcd CD database file
#
# Track frame offsets:
#	150
#	18386
#	43533
#	64787
#	86007
#	113604
#	135798
#	151003
#	171860
#	194584
#
# Disc length: 2979 seconds
#
# Revision: 3
# Processed by: cddbd v1.5.1PL0 Copyright (c) Steve Scherf et al.
# Submitted via: CDex 1.51
#
DISCID=740ba10a
DTITLE=松任谷由美 - 悲しいほどお天気
DYEAR=1979
DGENRE=JPop
TTITLE0=ジャコビニ彗星の日
TTITLE1=影になって
TTITLE2=緑の町に舞い降りて
TTITLE3=DESTINY
TTITLE4=丘の上の光
TTITLE5=悲しいほどお天気
TTITLE6=気ままな朝帰り
TTITLE7=水平線のグレナディン
TTITLE8=78
TTITLE9=さまよいの果て波は寄せる
EXTD=YEAR: 1979
EXTT0=
EXTT1=
EXTT2=
EXTT3=
EXTT4=
EXTT5=
EXTT6=
EXTT7=
EXTT8=
EXTT9=
PLAYORDER=
